<?xml version="1.0" encoding="UTF-8" standalone="no"?>
<svg
   xmlns:dc="http://purl.org/dc/elements/1.1/"
   xmlns:cc="http://creativecommons.org/ns#"
   xmlns:rdf="http://www.w3.org/1999/02/22-rdf-syntax-ns#"
   xmlns:svg="http://www.w3.org/2000/svg"
   xmlns="http://www.w3.org/2000/svg"
   version="1.1"
   viewBox="0 0 1022.84 813.16"
   height="813.16"
   width="1022.84"
   data-name="Layer 1"
   id="2cf41747-0c0c-4d70-aad4-093c093adad4">
  <metadata
     id="metadata2094">
    <rdf:RDF>
      <cc:Work
         rdf:about="">
        <dc:format>image/svg+xml</dc:format>
        <dc:type
           rdf:resource="http://purl.org/dc/dcmitype/StillImage" />
        <dc:title>book lover</dc:title>
      </cc:Work>
    </rdf:RDF>
  </metadata>
  <defs
     id="defs1731">
    <linearGradient
       gradientTransform="translate(-88.58,-43.42)"
       gradientUnits="userSpaceOnUse"
       y2="43.42"
       x2="635.22"
       y1="545.34"
       x1="635.22"
       id="3cf802be-0480-4c68-848a-073112220499">
      <stop
         id="stop1724"
         stop-opacity="0.25"
         stop-color="gray"
         offset="0" />
      <stop
         id="stop1726"
         stop-opacity="0.12"
         stop-color="gray"
         offset="0.54" />
      <stop
         id="stop1728"
         stop-opacity="0.1"
         stop-color="gray"
         offset="1" />
    </linearGradient>
  </defs>
  <title
     id="title1733">book lover</title>
  <polygon
     transform="translate(99.026603,6.8954004)"
     id="polygon1737"
     fill="#303eb2"
     points="93.17,688.83 59.16,609.06 179.42,600.33 158.46,512.87 396.32,482.04 168.55,402.86 188.67,398.08 554.92,457.83 534.75,594.32 505.92,669.33 435.45,690.5 " />
  <path
     id="path1739"
     fill="#303eb2"
     d="m 197.4466,662.3154 c 0,0 21,-3.36 33.6,11.48 0,0 -9.24,7.28 -29.12,-2.8 z" />
  <path
     id="path1741"
     fill="#303eb2"
     d="m 195.2466,661.9854 c 0,0 -13.4,16.49 -6.8,34.85 0,0 10.92,-4.37 12.11,-26.63 z" />
  <path
     id="path1743"
     fill="#303eb2"
     d="m 183.2066,634.8754 c 0,0 8.4,-15.41 42,6.16 0,0 -4.48,10.36 -19.32,9.52 -14.84,-0.84 -18.76,-7.56 -22.68,-15.68 z" />
  <path
     id="path1745"
     fill="#303eb2"
     d="m 181.0366,633.7654 c 0,0 -17.43,-2 -19.12,37.9 0,0 11.05,2.29 18.9,-10.33 7.85,-12.62 4.63,-19.7 0.22,-27.57 z" />
  <path
     id="path1747"
     fill="#303eb2"
     d="m 170.8866,601.9354 c 0,0 9.8,-27.16 45.36,-7.84 0,0 -8.12,24.92 -41.72,17.08 z" />
  <path
     id="path1749"
     fill="#303eb2"
     d="m 159.9666,561.3354 c 0,0 18.48,-27.44 51.24,-2 0,0 -11.48,25.76 -48.44,11.76 z" />
  <path
     id="path1751"
     fill="#303eb2"
     d="m 156.0466,522.6954 c 0,0 21.56,-25.21 54,0 0,0 -20.44,22.12 -54,6.44 z" />
  <path
     id="path1753"
     fill="#303eb2"
     d="m 152.6866,485.1654 c 0,0 21.84,-26.32 52.92,-1.4 0,0 -24.64,23.24 -52.92,7.56 z" />
  <path
     id="path1755"
     fill="#303eb2"
     d="m 154.6466,451.8454 c 0,0 23,-33.88 52.08,-10.92 0,0 -24.64,29.12 -52.08,17.36 z" />
  <path
     id="path1757"
     fill="#303eb2"
     d="m 159.9666,412.9254 c 0,0 24.36,-33.6 52.64,-7.84 0,0 -28.84,29.12 -52.64,14 z" />
  <path
     id="path1759"
     fill="#303eb2"
     d="m 168.0866,378.1354 c 0,0 28.84,-31.58 54,-19 0,0 -30.05,33.54 -55.26,27.38 z" />
  <path
     id="path1761"
     fill="#303eb2"
     d="m 178.1666,345.1554 c 0,0 33.28,-38.68 52.64,-25.76 0,0 -24.52,30 -55,33 z" />
  <path
     id="path1763"
     fill="#303eb2"
     d="m 192.7166,306.9054 c 0,0 29.13,-31.58 50.41,-23.74 0,0 -24.92,32.76 -54.32,33.6 z" />
  <path
     id="path1765"
     fill="#303eb2"
     d="m 205.8866,271.1254 c 0,0 32.2,-30.24 46.2,-24.92 0,0 -23.24,33.6 -47.6,31.64 z" />
  <path
     id="path1767"
     fill="#303eb2"
     d="m 218.7666,238.0854 c 0,0 27.72,-36.13 42.85,-33.33 0,0 -16.81,32.21 -42.85,37 z" />
  <path
     id="path1769"
     fill="#303eb2"
     d="m 232.7466,193.5354 c 0,0 24.5,-27.69 37.74,-27.63 0,0 -19.34,37 -38.75,36.66 z" />
  <path
     id="path1771"
     fill="#303eb2"
     d="m 241.0266,163.8754 23.67,-57.68 c 0,0 1.18,52.14 -26.68,68.38 z" />
  <path
     id="path1773"
     fill="#303eb2"
     d="m 250.6366,100.2654 c 0,0 3.92,-48.17 1.4,-52.09 0,0 16.92,40.05 -1.56,73.37 z" />
  <path
     id="path1775"
     fill="#303eb2"
     d="m 169.9666,601.2954 c 0,0 -24.54,-15.21 -40.43,22 0,0 21.84,14.5 43.32,-12.51 z" />
  <path
     id="path1777"
     fill="#303eb2"
     d="m 159.1766,559.7854 c 0,0 -30.1,-13.73 -44.7,25.12 0,0 23.25,16 47.44,-15.3 z" />
  <path
     id="path1779"
     fill="#303eb2"
     d="m 154.6466,525.0054 c 0,0 -21.56,-25.21 -54,0 0,0 20.44,22.12 54,6.44 z" />
  <path
     id="path1781"
     fill="#303eb2"
     d="m 151.9466,485.1654 c 0,0 -21.84,-26.32 -52.919997,-1.4 0,0 24.639997,23.24 52.919997,7.56 z" />
  <path
     id="path1783"
     fill="#303eb2"
     d="m 154.6466,452.8054 c 0,0 -15.32,-37.95 -48.62,-21.63 0,0 18,33.65 47.26,27.93 z" />
  <path
     id="path1785"
     fill="#303eb2"
     d="m 161.8966,412.7354 c 0,0 -15.23,-38.61 -49,-20.71 0,0 20.68,35.39 47.5,26.67 z" />
  <path
     id="path1787"
     fill="#303eb2"
     d="m 171.3366,378.3254 c 0,0 -6,-42.33 -34,-46.12 0,0 5.94,44.64 30.23,53.75 z" />
  <path
     id="path1789"
     fill="#303eb2"
     d="m 178.8766,345.2354 c 0,0 -2.34,-51 -25.49,-52.78 0,0 0.78,38.71 22.88,60 z" />
  <path
     id="path1791"
     fill="#303eb2"
     d="m 195.1166,305.4754 c 0,0 -6.9,-42.41 -29,-47.59 0,0 2.74,41.07 26.81,58 z" />
  <path
     id="path1793"
     fill="#303eb2"
     d="m 208.5066,271.4754 c 0,0 -0.23,-44.18 -13.73,-50.67 0,0 -8.37,40 9.82,56.31 z" />
  <path
     id="path1795"
     fill="#303eb2"
     d="m 219.7966,237.5854 c 0,0 -1.89,-45.49 -15.87,-51.9 0,0 -4.78,36 13.78,54.88 z" />
  <path
     id="path1797"
     fill="#303eb2"
     d="m 234.6966,197.1654 c 0,0 -0.08,-37 -10.06,-45.68 0,0 -9.92,40.53 4.85,53.12 z" />
  <path
     id="path1799"
     fill="#303eb2"
     d="m 239.8566,162.0554 -9.71,-61.58 c 0,0 -13.19,50.46 10.17,72.7 z" />
  <path
     id="path1801"
     fill="#303eb2"
     d="m 241.7466,100.8454 c 0,0 -24.92,-41.4 -24.41,-46 0,0 2.65,43.39 34,65 z" />
  <path
     id="path1803"
     fill="#303eb2"
     d="m 244.6666,88.6154 c 0,0 -23.52,-58.8 -34.16,-63.56 0,0 33.6,17.08 36.12,61.88 z" />
  <path
     id="path1805"
     fill="#444053"
     d="m 231.6166,202.9154 -1.61,-0.49 c 19.85,-64.73 24.8,-106 13.95,-116.35 l 1.15,-1.22 c 11.51,10.92 6.84,51.74 -13.49,118.06 z" />
  <path
     id="path1807"
     fill="#444053"
     d="m 176.9566,354.4754 -2.38,-0.85 c 2.11,-5.93 4.38,-11.95 6.76,-17.88 20.72,-51.64 38.36,-99.68 49.67,-136.56 l 2.07,-1 c -11.33,36.95 -28.66,86.83 -49.4,138.54 -2.37,5.82 -4.63,11.81 -6.72,17.75 z" />
  <path
     id="path1809"
     fill="#444053"
     d="m 227.0366,710.7554 c -0.32,-0.35 -32.49,-36.58 -54.92,-98.43 a 364.18,364.18 0 0 1 -21.67,-112.78 c -1.54,-48.13 8.56,-101.87 25.86,-150.69 l 1.88,2.2 c -38.84,109.57 -23.41,203.46 -2.94,260 22.19,61.29 54,97.12 54.31,97.48 z" />
  <path
     id="path1811"
     fill="#d5d6db"
     d="m 729.7566,633.8354 c 0,0 -22.67,27.67 -4.67,69.5 l -181,78.5 -17.37,3.64 -8,-35 5.35,-44.17 v -24.14 z" />
  <polygon
     transform="translate(99.026603,6.8954004)"
     id="polygon1813"
     fill="#303eb2"
     points="309.68,563.39 641.63,616.27 435.45,690.5 59.16,609.06 " />
  <polygon
     transform="translate(99.026603,6.8954004)"
     id="polygon1815"
     fill="#303eb2"
     points="309.68,563.39 641.63,616.27 435.45,690.5 59.16,609.06 " />
  <path
     id="path1817"
     fill="#303eb2"
     d="m 158.1866,615.9454 c 0,0 -23.43,44.39 3.57,85.39 l 371.5,80.5 c 0,0 -23.06,-35.36 1.19,-84.44 z" />
  <path
     id="path1819"
     opacity="0.1"
     d="m 158.1866,615.9454 c 0,0 -23.43,44.39 3.57,85.39 l 371.5,80.5 c 0,0 -23.06,-35.36 1.19,-84.44 z" />
  <path
     id="path1821"
     opacity="0.1"
     d="m 169.2566,631.3354 c 0,0 -13.39,32.48 0,53.5" />
  <path
     id="path1823"
     fill="#303eb2"
     d="m 533.2566,781.8354 207.4,-88.5 c 0,0 11.6,2.5 4.1,11 -7.5,8.5 -207.5,86 -207.5,86 l -375.5,-89 z" />
  <path
     id="path1825"
     opacity="0.1"
     d="m 533.2566,781.8354 207.4,-88.5 c 0,0 11.6,2.5 4.1,11 -7.5,8.5 -207.5,86 -207.5,86 l -375.5,-89 z" />
  <path
     id="path1827"
     opacity="0.1"
     d="m 516.2566,706.3354 c 0,0 -20,24 0,60" />
  <rect
     id="rect1829"
     opacity="0.1"
     transform="rotate(-18.45)"
     height="1"
     width="94.57"
     y="863.67181"
     x="263.59103" />
  <rect
     id="rect1831"
     opacity="0.1"
     transform="rotate(-20.82)"
     height="1"
     width="115.23"
     y="881.34662"
     x="224.76317" />
  <rect
     id="rect1833"
     opacity="0.1"
     transform="rotate(-22.26)"
     height="1"
     width="133.56"
     y="895.73053"
     x="199.50378" />
  <rect
     id="rect1835"
     opacity="0.1"
     transform="rotate(-24.31)"
     height="1"
     width="153.74001"
     y="910.51038"
     x="165.20584" />
  <rect
     id="rect1837"
     opacity="0.1"
     transform="rotate(-23.61)"
     height="1"
     width="168.14999"
     y="912.60284"
     x="175.70111" />
  <rect
     id="rect1839"
     opacity="0.1"
     transform="rotate(-23.36)"
     height="1"
     width="201.22"
     y="919.02759"
     x="179.10252" />
  <polygon
     transform="translate(99.026603,6.8954004)"
     id="polygon1841"
     opacity="0.3"
     fill="#ffffff"
     points="328.23,576.94 435.45,597.44 291.23,643.94 152.23,613.94 " />
  <path
     id="path1843"
     fill="#303eb2"
     d="m 740.6566,623.1654 c 0,0 9.1,3.67 3.76,9.34 -5.34,5.67 -209.97,64.89 -209.97,64.89 z" />
  <path
     id="path1845"
     fill="#d5d6db"
     d="m 829.0466,537.6554 c 0,0 -22.66,27.66 -4.66,69.5 l -181,78.5 -17.37,3.66 -8,-35 5.43,-44.16 v -24.17 z" />
  <polygon
     transform="translate(99.026603,6.8954004)"
     id="polygon1847"
     fill="#3a3768"
     points="408.97,467.21 740.93,520.09 534.75,594.32 158.46,512.87 " />
  <path
     id="path1849"
     fill="#3a3768"
     d="m 257.4466,519.7654 c 0,0 -23.44,44.39 3.56,85.39 l 371.5,80.5 c 0,0 -23.05,-35.39 1.23,-84.45 z" />
  <path
     id="path1851"
     opacity="0.1"
     d="m 257.4466,519.7654 c 0,0 -23.44,44.39 3.56,85.39 l 371.5,80.5 c 0,0 -23.05,-35.39 1.23,-84.45 l -117.48,-25.43 z" />
  <path
     id="path1853"
     opacity="0.1"
     d="m 268.5466,535.1554 c 0,0 -13.38,32.47 0,53.5" />
  <path
     id="path1855"
     fill="#3a3768"
     d="m 632.5466,685.6554 207.41,-88.5 c 0,0 11.59,2.5 4.09,11 -7.5,8.5 -207.5,86 -207.5,86 l -375.5,-89 z" />
  <path
     id="path1857"
     opacity="0.1"
     d="m 632.5466,685.6554 207.41,-88.5 c 0,0 11.59,2.5 4.09,11 -7.5,8.5 -207.5,86 -207.5,86 l -375.5,-89 z" />
  <path
     id="path1859"
     opacity="0.1"
     d="m 615.5466,610.1554 c 0,0 -20,24 0,60" />
  <rect
     id="rect1861"
     opacity="0.1"
     transform="rotate(-18.45)"
     height="1"
     width="94.57"
     y="803.87103"
     x="388.22028" />
  <rect
     id="rect1863"
     opacity="0.1"
     transform="rotate(-20.82)"
     height="1"
     width="115.23"
     y="826.75073"
     x="351.77219" />
  <rect
     id="rect1865"
     opacity="0.1"
     transform="rotate(-22.26)"
     height="1"
     width="133.56"
     y="844.32526"
     x="327.83633" />
  <rect
     id="rect1867"
     opacity="0.1"
     transform="rotate(-24.31)"
     height="1"
     width="153.74001"
     y="863.73517"
     x="295.30484" />
  <rect
     id="rect1869"
     opacity="0.1"
     transform="rotate(-23.61)"
     height="1"
     width="168.14999"
     y="864.2243"
     x="305.211" />
  <rect
     id="rect1871"
     opacity="0.1"
     transform="rotate(-23.36)"
     height="1"
     width="201.22"
     y="870.08759"
     x="308.40701" />
  <polygon
     transform="translate(99.026603,6.8954004)"
     id="polygon1873"
     opacity="0.45"
     fill="#ffffff"
     points="427.53,480.76 534.75,501.26 390.53,547.76 251.53,517.76 " />
  <path
     id="path1875"
     fill="#3a3768"
     d="m 839.9566,526.9854 c 0,0 9.09,3.67 3.76,9.33 -5.33,5.66 -209.94,64.89 -209.94,64.89 z" />
  <path
     id="path1877"
     fill="#d5d6db"
     d="m 838.4466,427.6254 c 0,0 -22.67,49.67 -4.67,91.5 l -181,56.5 -17.33,3.67 -8,-35 5.35,-44.17 v -24.17 z" />
  <polygon
     transform="translate(99.026603,6.8954004)"
     id="polygon1879"
     fill="#303eb2"
     points="418.41,357.18 750.37,410.06 544.18,484.29 167.89,402.85 " />
  <path
     id="path1881"
     fill="#303eb2"
     d="m 266.9166,409.7354 c 0,0 -23.47,44.39 3.53,85.39 l 371.5,80.5 c 0,0 -23.06,-35.39 1.22,-84.44 z" />
  <path
     id="path1883"
     opacity="0.1"
     d="m 266.9166,409.7354 c 0,0 -23.47,44.39 3.53,85.39 l 371.5,80.5 c 0,0 -23.06,-35.39 1.22,-84.44 z" />
  <path
     id="path1885"
     opacity="0.1"
     d="m 277.9866,425.1254 c 0,0 -13.39,32.48 0,53.5" />
  <path
     id="path1887"
     fill="#303eb2"
     d="m 641.9866,575.6254 207.4,-66.5 c 0,0 11.6,2.5 4.1,11 -7.5,8.5 -207.5,64 -207.5,64 l -375.5,-89 z" />
  <path
     id="path1889"
     opacity="0.1"
     d="m 641.9866,575.6254 207.4,-66.5 c 0,0 11.6,2.5 4.1,11 -7.5,8.5 -207.5,64 -207.5,64 l -375.5,-89 z" />
  <path
     id="path1891"
     opacity="0.1"
     d="m 624.9866,500.1254 c 0,0 -20,24 0,60" />
  <rect
     id="rect1893"
     opacity="0.1"
     transform="rotate(-18.45)"
     height="1"
     width="94.57"
     y="702.48309"
     x="432.00034" />
  <rect
     id="rect1895"
     opacity="0.1"
     transform="rotate(-20.82)"
     height="1"
     width="115.23"
     y="727.26221"
     x="399.69919" />
  <rect
     id="rect1897"
     opacity="0.1"
     transform="rotate(-22.26)"
     height="1"
     width="133.56"
     y="746.07355"
     x="378.23804" />
  <rect
     id="rect1899"
     opacity="0.1"
     transform="rotate(-24.31)"
     height="1"
     width="153.74001"
     y="767.34705"
     x="349.2052" />
  <rect
     id="rect1901"
     opacity="0.1"
     transform="rotate(-23.61)"
     height="1"
     width="168.14999"
     y="767.19568"
     x="357.93063" />
  <rect
     id="rect1903"
     opacity="0.1"
     transform="rotate(-23.36)"
     height="1"
     width="201.22"
     y="772.83441"
     x="360.6972" />
  <polygon
     transform="translate(99.026603,6.8954004)"
     id="polygon1905"
     opacity="0.3"
     fill="#ffffff"
     points="436.96,370.73 544.18,391.23 399.96,437.73 260.96,407.73 " />
  <path
     id="path1907"
     fill="#303eb2"
     d="m 849.3866,416.9554 c 0,0 9.1,3.67 3.76,9.34 -5.34,5.67 -209.94,64.89 -209.94,64.89 z" />
  <path
     id="path1909"
     fill="#303eb2"
     d="m 409.4466,113.3954 c 0,0 -38,-2.29 -33.56,24.37 0,0 -0.89,4.71 3.38,6.85 0,0 0.07,-2 3.9,-1.31 a 17.05,17.05 0 0 0 4.14,0.2 8.62,8.62 0 0 0 5.05,-2.08 v 0 c 0,0 10.69,-4.42 14.85,-21.9 0,0 3.08,-3.81 3,-4.79 l -6.44,2.74 c 0,0 2.19,4.63 0.47,8.48 0,0 -0.21,-8.31 -1.45,-8.12 -0.25,0 -3.33,1.61 -3.33,1.61 0,0 3.77,8.07 0.92,13.93 0,0 1.08,-9.94 -2.1,-13.35 l -4.52,2.64 c 0,0 4.41,8.33 1.42,15.13 0,0 0.77,-10.43 -2.37,-14.49 l -4.1,3.2 c 0,0 4.15,8.21 1.62,13.85 0,0 -0.33,-12.14 -2.5,-13.06 0,0 -3.59,3.16 -4.13,4.46 0,0 2.84,6 1.07,9.11 0,0 -1.07,-8.09 -2,-8.13 0,0 -3.57,5.36 -3.94,9 a 19.46,19.46 0 0 1 3.07,-9.54 10.71,10.71 0 0 0 -5.46,2.83 c 0,0 0.55,-3.79 6.35,-4.12 0,0 2.95,-4.07 3.74,-4.31 0,0 -5.77,-0.49 -9.26,1.06 0,0 3.08,-3.57 10.31,-2 l 4,-3.3 c 0,0 -7.58,-1 -10.8,0.11 0,0 3.71,-3.16 11.89,-0.86 l 4.41,-2.63 c 0,0 -6.47,-1.39 -10.32,-0.89 0,0 4.06,-2.19 11.61,0.18 l 3.14,-1.41 c 0,0 -4.73,-0.93 -6.12,-1.08 -1.39,-0.15 -1.46,-0.53 -1.46,-0.53 a 16.51,16.51 0 0 1 8.9,1 c 0,0 6.75,-2.43 6.62,-2.85 z" />
  <path
     id="path1913"
     opacity="0.1"
     fill="#303eb2"
     d="m 473.4466,278.0954 c 0,0 -16.56,-34.33 -37.64,-17.41 0,0 -4.55,1.52 -4.33,6.29 0,0 1.75,-0.91 3,2.77 a 17.72,17.72 0 0 0 1.84,3.7 8.63,8.63 0 0 0 4.29,3.4 v 0 c 0,0 9.07,7.18 26.36,2.28 0,0 4.83,0.83 5.62,0.25 l -5.52,-4.27 c 0,0 -3,4.17 -7.18,4.54 0,0 7.16,-4.23 6.39,-5.21 -0.16,-0.2 -3,-2.13 -3,-2.13 0,0 -5.21,7.23 -11.71,7.6 0,0 9.2,-3.9 10.62,-8.35 l -4.5,-2.66 c 0,0 -5.13,7.92 -12.52,8.62 0,0 9.48,-4.41 11.49,-9.13 l -4.78,-2 c 0,0 -5.15,7.62 -11.31,8.17 0,0 10.44,-6.21 10.18,-8.56 0,0 -4.51,-1.58 -5.91,-1.43 0,0 -3.82,5.39 -7.42,5.39 0,0 6.53,-4.89 6.13,-5.68 0,0 -6.42,-0.5 -9.8,1 a 19.47,19.47 0 0 1 9.83,-2 10.77,10.77 0 0 0 -5.14,-3.39 c 0,0 3.58,-1.36 6.69,3.53 0,0 5,0.59 5.59,1.16 0,0 -2.39,-5.26 -5.44,-7.55 0,0 4.62,0.93 6.73,8 l 4.85,1.92 c 0,0 -2.79,-7.12 -5.36,-9.37 0,0 4.56,1.69 6.55,10 l 4.44,2.56 c 0,0 -1.93,-6.33 -4.25,-9.44 0,0 3.89,2.48 5.5,10.22 l 2.77,2.06 c 0,0 -1.5,-4.59 -2,-5.87 -0.5,-1.28 -0.25,-1.54 -0.25,-1.54 a 16.41,16.41 0 0 1 3.48,8.25 c 0,0 5.35,4.58 5.71,4.28 z" />
  <path
     style="fill:url(#3cf802be-0480-4c68-848a-073112220499)"
     id="path1933"
     fill="url(#3cf802be-0480-4c68-848a-073112220499)"
     d="m 813.9866,384.1854 c -6.54,-17.77 -42.54,-19.44 -58.16,-14.91 -11.1,3.23 -34.5,6.87 -47,8.7 l -0.81,-0.77 c 1.62,-0.48 1.66,-1.66 1.46,-3.41 a 53.37,53.37 0 0 1 0.1,-6.92 c 7.66,2.38 14.48,-3.25 14.48,-3.25 v 0 c 9,-4 6.58,-21.12 8.3,-25.8 1.29,-3.5 2.68,-24.12 3.3,-34.4 h 0.13 l 0.07,-3.45 c 0.09,-1.49 0.13,-2.36 0.13,-2.36 0,0 0.88,-25.14 2.6,-30.23 1.6,-4.68 2.9,-28.26 3.1,-32 0,-0.32 0,-0.49 0,-0.49 l -0.13,-2.18 c 0.09,-1.59 0.13,-3.36 0.12,-5.22 0,-8.55 -0.89,-19.32 -1,-21.06 0,-0.25 0,-0.55 0,-0.91 0.07,-3.65 -0.39,-21.93 -15.94,-28.84 -5.73,-2.56 -12.62,-5.61 -19.29,-8.58 -1.72,-14.85 -5.65,-29.62 -5.31,-44.58 0,-2.25 0.2,-4.5 0.42,-6.74 0,0.65 -0.07,1.31 -0.08,2 0,1.45 0,2.91 0,4.36 0.59,-18.71 7.66,-37.52 7,-55.83 -0.06,1.79 -0.19,3.59 -0.36,5.39 a 58.13,58.13 0 0 0 -1.92,-18.39 c -0.6,-2.11 -1.41,-4.29 -3.14,-5.7 a 12.93,12.93 0 0 0 -5.48,-2.17 110.21,110.21 0 0 0 -14.39,-2.68 22.22,22.22 0 0 0 -3.24,-6.29 c -10.14,-13.92 -25.16,-27 -42.92,-29.9999996 -8.91,-1.5 -19.16,-0.25 -25.22,6.1199996 a 18.92,18.92 0 0 0 -1.78,1.8 c -3.26,3.89 -4.66,9 -8,12.88 -0.22,0.26 -0.47,0.5 -0.71,0.75 -6.54,5.85 -16.73,7.07 -24,12.32 a 28.81,28.81 0 0 0 -3.59,3.13 60.88,60.88 0 0 0 -7.84,9.53 c -3.27,4.6 -6.63,9.39 -7.67,14.88 -2.09,11 5.4,21.43 6.79,32.5 3.1,24.77 -24.31,46.75 -19.12,71.19 a 32.6,32.6 0 0 0 8.82,15.83 c -10.69,9.68 -19.79,19.07 -19.79,19.07 v 0.56 h -1.69 l 0.17,2 h -0.17 l 0.93,10.85 -0.93,15.8 c 0,0 0,0.17 0,0.49 v 0.08 0.43 c 0,0 0,0.17 0,0.49 h 0.06 c 0.31,5.79 1.54,26.61 3,31 1.72,5.09 2.59,30.23 2.59,30.23 0,0 1.9,35.53 3.64,40.23 1.74,4.7 -0.73,21.77 8.3,25.8 v 0 a 19,19 0 0 0 9.07,3.76 c -0.46,3.74 -0.17,6.45 1.32,7.3 a 4.36,4.36 0 0 0 2.1,0.6 22.29,22.29 0 0 0 -1.63,2.85 42.36,42.36 0 0 1 -10.48,-2.47 c -9.7,-4 -41.89,-13 -51.24,-6.67 -9.35,6.33 -31.85,12.07 -21.46,37.55 10.39,25.48 15.23,26.12 15.23,26.12 a 37,37 0 0 1 8.31,8.35 c 3.12,4.69 32.19,15.42 39.46,15.42 a 71.19,71.19 0 0 1 9.25,0.46 c 0,0 -7.89,6.92 -6.84,10.94 1.05,4.02 -2.4,36.2 -2.4,36.2 0,0 8,8.06 11.42,-2.51 l 0.12,0.16 c 0.64,0.87 4.1,4.8 10.61,-0.16 a 59.48,59.48 0 0 1 8.46,-5.36 l 31.52,-4.46 a 89.24,89.24 0 0 1 9.87,-0.07 c 5,0.41 9.91,-2.55 13,-4.84 6.53,2.48 13.87,5.19 17.36,6.18 7.08,2 39.62,10.73 47.23,8 a 10.57,10.57 0 0 0 4.1,-2.92 l 7.26,0.23 -3.4,0.68 c 0,0 6.62,0.11 15.62,0.23 l -0.38,0.22 11.29,-0.1 c 16.52,0.15 35.08,0.2 37.52,-0.35 3.82,-0.85 23.67,-0.25 29.52,0 h 1.63 c 0,0 21.81,-4.35 12.81,-26.48 -6.92,-17 -28.19,-21.94 -37.63,-23.3 2.66,-0.53 4.95,-0.94 6.47,-1.18 6.59,-1 19.39,-7 20.43,-9.05 1.04,-2.05 11.77,-8 14.54,-11.39 2.77,-3.39 10.68,-27.42 4.11,-45.19 z m -180.65,49.73 -1.07,0.35 -0.72,0.24 -1.38,1.36 c -1.1,-0.74 -2.28,-1.52 -3.51,-2.32 2.17,0.13 4.4,0.26 6.68,0.37 z m 95.31,28.18 z" />
  <path
     id="path1935"
     fill="#be6f72"
     d="m 697.0966,328.4754 c 0,0 15.3,40 24,36 8.7,-4 6.34,-21 8,-25.66 1.66,-4.66 3.5,-40 3.5,-40 0,0 0.84,-25 2.5,-30.06 1.54,-4.65 2.79,-28.1 3,-31.79 0,-0.32 0,-0.49 0,-0.49 l -1.65,-29 -9.34,-2.33 -21.66,8 -3,17.13 -1.17,6.69 -0.5,2.85 z" />
  <path
     id="path1937"
     opacity="0.1"
     d="m 702.1366,321.7754 c 0,0 14.6,11.95 19,13 4.4,1.05 7.1,10.37 7.1,10.37" />
  <path
     id="path1939"
     fill="#be6f72"
     d="m 577.4466,330.2254 c 0,0 -15.3,40 -24,36 -8.7,-4 -6.34,-21 -8,-25.66 -1.66,-4.66 -3.5,-40 -3.5,-40 0,0 -0.84,-25 -2.5,-30.06 -1.54,-4.65 -2.79,-28.1 -3,-31.79 0,-0.32 0,-0.49 0,-0.49 l 1.66,-29 9.34,-2.33 21.66,8 3,17.13 1.17,6.69 0.5,2.85 z" />
  <rect
     id="rect1941"
     fill="#3e373a"
     height="53.23"
     width="34.150002"
     y="116.1654"
     x="642.92664" />
  <rect
     id="rect1943"
     opacity="0.1"
     height="53.23"
     width="34.150002"
     y="116.1654"
     x="642.92664" />
  <path
     id="path1945"
     fill="#4b4b5b"
     d="m 571.4466,370.0654 c 0,0 -11.67,12.83 -7.34,15.16 4.33,2.33 32.34,46 32.34,46 0,0 92,11.33 109.35,-5.67 17.35,-17 17,-47.37 17,-47.37 0,0 -13.94,3 -15.46,1.37 -1.52,-1.63 -9.87,-9.49 -9.87,-9.49 0,0 -118.02,-7.16 -126.02,0 z" />
  <path
     id="path1947"
     opacity="0.02"
     d="m 571.4466,370.0654 c 0,0 -11.67,12.83 -7.34,15.16 4.33,2.33 32.34,46 32.34,46 0,0 92,11.33 109.35,-5.67 17.35,-17 17,-47.37 17,-47.37 0,0 -13.94,3 -15.46,1.37 -1.52,-1.63 -9.87,-9.49 -9.87,-9.49 0,0 -118.02,-7.16 -126.02,0 z" />
  <path
     id="path1949"
     fill="#be6f72"
     d="m 737.0666,207.8954 -30,24 -9.07,0.66 -3.33,0.24 -55.93,4.1 -58,-4.24 -8.63,-0.63 -11,-0.8 -23,-22 c 0,0 16.28,-17.44 30.54,-29.21 5.62,-4.65 10.93,-8.41 14.8,-9.89 l 0.66,-0.23 a 16.46,16.46 0 0 0 6.34,-4.42 c 11.26,-11.61 21.67,-40.26 21.67,-40.26 0,0 49.67,-25.66 43.67,8 -6,33.66 22.33,25.34 22.33,25.34 l 9.34,4.26 3.69,1.69 9.41,4.31 21.23,9.74 c 16.66,7.67 15.28,29.34 15.28,29.34 z" />
  <circle
     id="circle1951"
     opacity="0.1"
     r="44.669998"
     cy="107.9554"
     cx="636.40662" />
  <path
     id="path1953"
     opacity="0.1"
     d="m 737.1366,239.7154 h -200.69 c 0,-0.32 0,-0.49 0,-0.49 l 1.66,-29 c 0,0 16.28,-17.44 30.54,-29.21 l 126,-5 5.86,-6.18 21.23,9.74 c 16.67,7.66 15.33,29.33 15.33,29.33 0,0 2.28,25.11 0.07,30.81 z" />
  <path
     id="path1955"
     fill="#e7c7ca"
     d="m 737.1366,238.7154 h -200.69 c 0,-0.32 0,-0.49 0,-0.49 l 1.66,-29 c 0,0 16.28,-17.44 30.54,-29.21 l 126,-5 5.86,-6.18 21.23,9.74 c 16.67,7.66 15.33,29.33 15.33,29.33 0,0 2.28,25.11 0.07,30.81 z" />
  <path
     id="path1957"
     opacity="0.1"
     d="m 604.2366,157.3954 c 0,0 31.66,40.34 73.83,-0.83 42.17,-41.17 4.67,91.83 4.67,91.83 l -91,10.8 z" />
  <path
     id="path1959"
     fill="#e7c7ca"
     d="m 604.2366,159.3954 c 0,0 31.66,40.34 73.83,-0.83 42.17,-41.17 4.67,91.83 4.67,91.83 l -91,10.8 z" />
  <path
     id="path1961"
     opacity="0.1"
     d="m 691.0966,166.4754 3.35,51.09 3.59,17 2.74,13 c 0,0 7,100 5,105 -2,5 1,9 1.42,11.66 0.42,2.66 -0.42,9.34 -0.09,12.34 0.33,3 0,4.33 -7.66,3.26 -7.66,-1.07 -18.34,-2.93 -18.34,-2.93 0,0 -27,2 -36.33,-1.33 -9.33,-3.33 -27,-3.34 -27,-3.34 0,0 -26.67,0.67 -35.33,-0.33 -8.66,-1 -13.34,10.67 -19,7.33 -5.66,-3.34 6.66,-35.66 10.66,-45 4,-9.34 -5.33,-33 -5.33,-33 l 12,-66.57 2.67,-15.09 v -47.44 l 0.66,-0.23 a 16.46,16.46 0 0 0 6.34,-4.42 l 3,47.74 94,3.34 v -53.73" />
  <path
     id="path1963"
     fill="#e7c7ca"
     d="m 691.0966,164.4754 3.35,51.09 3.59,17 2.74,13 c 0,0 7,100 5,105 -2,5 1,9 1.42,11.66 0.42,2.66 -0.42,9.34 -0.09,12.34 0.33,3 0,4.33 -7.66,3.26 -7.66,-1.07 -18.34,-2.93 -18.34,-2.93 0,0 -27,2 -36.33,-1.33 -9.33,-3.33 -27,-3.34 -27,-3.34 0,0 -26.67,0.67 -35.33,-0.33 -8.66,-1 -13.34,10.67 -19,7.33 -5.66,-3.34 6.66,-35.66 10.66,-45 4,-9.34 -5.33,-33 -5.33,-33 l 12,-66.57 2.67,-15.09 v -47.44 l 0.66,-0.23 a 16.46,16.46 0 0 0 6.34,-4.42 l 3,47.74 94,3.34 v -53.73" />
  <path
     id="path1965"
     opacity="0.1"
     d="m 701.9066,57.8554 c -0.57,-2.09 -1.36,-4.26 -3,-5.66 a 12.28,12.28 0 0 0 -5.28,-2.16 104.32,104.32 0 0 0 -13.88,-2.66 22.22,22.22 0 0 0 -3,-6.23 c -9.8,-13.84 -24.3,-26.89 -41.36,-29.84 -8.93,-1.5499996 -19.28,-0.16 -25,6.88 -3.14,3.87 -4.49,9 -7.66,12.8 -6.11,7.38 -17.14,8.29 -24.84,14 -4.11,3 -7.09,7.35 -10,11.57 -3.15,4.57 -6.39,9.33 -7.39,14.79 -2,10.91 5.21,21.31 6.54,32.32 3,24.63 -23.4,46.48 -18.41,70.78 2.91,14.17 16,24.15 29.54,29.21 4.77,1.79 10.22,3.57 12.45,8.15 1,2 1.17,4.31 2.11,6.33 3.16,6.74 13.55,7 19.13,2.09 5.58,-4.91 7.34,-12.85 8,-20.26 2.68,-32.36 -10.28,-64.33 -8.77,-96.77 0.45,-9.81 3.21,-20.94 12,-25.38 11.83,-6 26.06,4 39.08,2.09 a 77.53,77.53 0 0 1 3.74,47.31 c -2.07,8.63 -5.65,17 -5.91,25.9 -0.39,13.55 6.92,25.93 13.24,37.91 a 20.17,20.17 0 0 1 2.67,7.31 17.62,17.62 0 0 1 -1.43,7.65 c -3.57,9.61 -9.73,18.53 -10.43,28.76 a 4.65,4.65 0 0 0 0.75,3.42 4.3,4.3 0 0 0 2.58,1.16 c 10.8,1.85 20.14,-7.72 25.41,-17.33 a 81.24,81.24 0 0 0 10.02,-34.52 c 1.09,-20.36 -6.21,-40.39 -5.76,-60.77 0.52,-23.17 10.99,-46.5 4.86,-68.85 z" />
  <path
     id="path1967"
     fill="#3e373a"
     d="m 702.9066,56.8554 c -0.57,-2.09 -1.36,-4.26 -3,-5.66 a 12.28,12.28 0 0 0 -5.28,-2.16 104.32,104.32 0 0 0 -13.88,-2.66 22.22,22.22 0 0 0 -3,-6.23 c -9.8,-13.84 -24.3,-26.89 -41.36,-29.84 -8.93,-1.5499996 -19.28,-0.16 -25,6.88 -3.14,3.87 -4.49,9 -7.66,12.8 -6.11,7.38 -17.14,8.29 -24.84,14 -4.11,3 -7.09,7.35 -10,11.57 -3.15,4.57 -6.39,9.33 -7.39,14.79 -2,10.91 5.21,21.31 6.54,32.32 3,24.63 -23.4,46.48 -18.41,70.78 2.91,14.17 16,24.15 29.54,29.21 4.77,1.79 10.22,3.57 12.45,8.15 1,2 1.17,4.31 2.11,6.33 3.16,6.74 13.55,7 19.13,2.09 5.58,-4.91 7.34,-12.85 8,-20.26 2.68,-32.36 -10.28,-64.33 -8.77,-96.77 0.45,-9.81 3.21,-20.94 12,-25.38 11.83,-6 26.06,4 39.08,2.09 a 77.53,77.53 0 0 1 3.74,47.31 c -2.07,8.63 -5.65,17 -5.91,25.9 -0.39,13.55 6.92,25.93 13.24,37.91 a 20.17,20.17 0 0 1 2.67,7.31 17.62,17.62 0 0 1 -1.43,7.65 c -3.57,9.61 -9.73,18.53 -10.43,28.76 a 4.65,4.65 0 0 0 0.75,3.42 4.3,4.3 0 0 0 2.58,1.16 c 10.8,1.85 20.14,-7.72 25.41,-17.33 a 81.24,81.24 0 0 0 10.02,-34.52 c 1.09,-20.36 -6.21,-40.39 -5.76,-60.77 0.52,-23.17 10.99,-46.5 4.86,-68.85 z" />
  <polygon
     transform="translate(99.026603,6.8954004)"
     id="polygon1969"
     fill="#c3c7d9"
     points="621.46,494 615.77,464.58 585.38,467.47 581.79,492.73 " />
  <path
     id="path1971"
     fill="#4b4b5b"
     d="m 803.7366,429.8954 c -2.67,3.33 -13,9.33 -14,11.33 -1,2 -13.33,8 -19.67,9 -6.34,1 -26.33,5.34 -30,7.67 -2.63,1.68 -23.74,7 -37.61,9.95 a 106.75,106.75 0 0 1 -11.39,2.05 c -6,0.33 -71.66,-22 -71.66,-22 l 12.66,-13 0.7,-0.24 c 3.58,-1.21 20.12,-6.8 29.3,-9.46 10.34,-3 22.34,-15.33 22.34,-15.33 0,0 17.66,-6 20,-6.67 2.34,-0.67 -6,-23.33 -6,-23.33 0,0 38.33,-5.32 53.33,-9.83 15,-4.51 49.67,-2.84 56,14.83 6.33,17.67 -1.29,41.7 -4,45.03 z" />
  <path
     id="path1973"
     fill="#e7c7ca"
     d="m 629.0666,486.2254 c 0,0 -7.66,8 -15.33,7.34 -7.67,-0.66 -34.49,2 -34.49,2 a 53.77,53.77 0 0 0 -13.51,7.83 c -6.27,4.94 -9.6,1 -10.22,0.16 l -0.11,-0.16 c -3.34,10.51 -11,2.5 -11,2.5 0,0 3.33,-32 2.31,-36 -1.02,-4 6.59,-10.87 6.59,-10.87 l 9,-2.29 22.8,-5.84 32.67,11.33 z" />
  <path
     id="path1975"
     opacity="0.1"
     d="m 562.2666,456.7354 -6.75,46.82 -0.11,-0.16 c -3.34,10.51 -11,2.5 -11,2.5 0,0 3.33,-32 2.31,-36 -1.02,-4 6.59,-10.87 6.59,-10.87 z" />
  <path
     id="path1977"
     opacity="0.1"
     d="m 609.4466,323.5554 c 0,0 17.66,6 33,0" />
  <path
     id="path1979"
     opacity="0.1"
     d="m 669.7366,334.8954 c 0,0 7.33,3.66 13,0" />
  <path
     id="path1981"
     opacity="0.1"
     d="m 669.7366,343.5754 c 0,0 12.33,1.65 14.67,-1.68" />
  <path
     id="path1983"
     opacity="0.1"
     d="m 665.7366,362.2254 c 0,0 23.16,-3 28.91,-7" />
  <path
     id="path1985"
     opacity="0.1"
     d="m 595.0666,355.2254 c 0,0 13,7.33 22.67,7" />
  <path
     id="path1987"
     opacity="0.1"
     d="m 702.4466,467.8454 a 106.75,106.75 0 0 1 -11.39,2.05 c -6,0.33 -71.66,-22 -71.66,-22 l 12.66,-13 0.7,-0.24 c 2,1.41 3.64,2.62 4.81,3.54 5.51,4.34 10.83,-1.33 12.83,-1.33 2,0 19.33,14.33 19.33,14.33 0,0 16,3.67 18.67,7 2.67,3.33 12,2.67 13.66,5 0.5,0.72 0.56,2.49 0.39,4.65 z" />
  <path
     id="path1989"
     fill="#4b4b5b"
     d="m 579.2466,381.2254 c 0,0 -16.18,0.93 -25.51,-3 -9.33,-3.93 -40.33,-13 -49.33,-6.63 -9,6.37 -30.67,12 -20.67,37.34 10,25.34 14.67,26 14.67,26 a 36.1,36.1 0 0 1 8,8.3 c 3,4.67 31,15.33 38,15.33 7,0 19.33,0 36.66,12 17.33,12 33,13.34 33,13.34 0,0 22,9 28.85,11 6.85,2 38.15,10.66 45.49,8 7.34,-2.66 12,-19.34 12,-19.34 0,0 3.33,-15 1.66,-17.33 -1.67,-2.33 -11,-1.67 -13.66,-5 -2.66,-3.33 -18.67,-7 -18.67,-7 0,0 -17.29,-14.34 -19.29,-14.34 -2,0 -7.32,5.66 -12.83,1.33 a 292.69,292.69 0 0 0 -34.51,-22 c -12.66,-6.67 -23.86,-38 -23.86,-38 z" />
  <path
     id="path1991"
     opacity="0.1"
     d="m 546.7166,390.8954 a 19.1,19.1 0 0 1 16.39,4.33 c 8,6.67 34.92,20.06 34.92,20.06" />
  <path
     id="path1993"
     opacity="0.1"
     d="m 746.7366,390.4754 c 0,0 -35.67,5.4 -42.33,12.73" />
  <path
     id="path1995"
     fill="#e7c7ca"
     d="m 787.7366,500.8954 h -1.57 c -5.64,-0.2 -24.75,-0.8 -28.43,0 -4.33,1 -61.67,0 -61.67,0 l 11.21,-2.33 c 0,0 -4.16,-14.58 -1.52,-15.79 0,0 -15,-9.88 -3.69,-16.55 11.31,-6.67 23.5,-3.86 23.5,-3.86 l 28.39,-9.62 5.45,-1.85 c 0,0 32,1.67 40.66,23.67 8.66,22 -12.33,26.33 -12.33,26.33 z" />
  <path
     id="path1997"
     opacity="0.1"
     d="m 787.7366,500.8954 h -1.57 c 9.31,-7.68 30.37,-31.06 -32.21,-48.1 l 5.45,-1.85 c 0,0 32,1.67 40.66,23.67 8.66,22 -12.33,26.28 -12.33,26.28 z" />
  <circle
     id="circle1999"
     fill="#4b4b5b"
     r="1.75"
     cy="473.22537"
     cx="728.90662" />
  <circle
     id="circle2001"
     fill="#4b4b5b"
     r="1.75"
     cy="476.11539"
     cx="718.73663" />
  <g
     transform="translate(99.026603,6.8954004)"
     id="g2015"
     opacity="0.1">
    <path
       id="path2003"
       transform="translate(-88.58,-43.42)"
       d="M 658.74,142.83 A 77.59,77.59 0 0 0 653,110.69 c -13,1.94 -27.24,-8.09 -39.08,-2.09 -8.76,4.44 -11.51,15.57 -12,25.38 -0.12,2.59 -0.14,5.18 -0.09,7.77 0,-0.92 0,-1.85 0.09,-2.77 0.46,-9.81 3.21,-20.94 12,-25.38 11.84,-6 26.06,4 39.08,2.09 a 77.38,77.38 0 0 1 5.74,27.14 z" />
    <path
       id="path2005"
       transform="translate(-88.58,-43.42)"
       d="m 558,141 a 33.32,33.32 0 0 0 -0.13,-6.54 c -1.06,-8.8 -5.87,-17.21 -6.74,-25.79 -1.12,10.35 5.47,20.29 6.74,30.79 C 558,140 558,140.48 558,141 Z" />
    <path
       id="path2007"
       transform="translate(-88.58,-43.42)"
       d="m 610.69,230.74 c -0.62,7.42 -2.37,15.35 -8,20.27 -5.63,4.92 -16,4.65 -19.13,-2.09 -1,-2 -1.15,-4.33 -2.12,-6.33 -2.22,-4.58 -7.68,-6.36 -12.45,-8.15 -13.55,-5.07 -26.62,-15 -29.53,-29.21 a 30.68,30.68 0 0 1 -0.53,-3.9 31.52,31.52 0 0 0 0.53,8.9 c 2.91,14.17 16,24.14 29.53,29.21 4.77,1.79 10.23,3.57 12.45,8.15 1,2 1.17,4.31 2.12,6.33 3.15,6.74 13.54,7 19.13,2.09 5.59,-4.91 7.33,-12.85 8,-20.27 A 114.29,114.29 0 0 0 611,224 c 0,2.27 -0.13,4.51 -0.31,6.74 z" />
    <path
       id="path2009"
       transform="translate(-88.58,-43.42)"
       d="m 687.93,157.49 c 0,1.45 0,2.89 0,4.33 0.56,-18.6 7.38,-37.3 6.71,-55.51 -0.52,16.84 -6.33,34.06 -6.71,51.18 z" />
    <path
       id="path2011"
       transform="translate(-88.58,-43.42)"
       d="m 666.47,232.73 a 12.89,12.89 0 0 0 0.23,-3.61 20,20 0 0 0 -2.67,-7.31 c -5.78,-11 -12.37,-22.26 -13.15,-34.47 0,0.52 -0.07,1 -0.08,1.56 -0.4,13.54 6.91,25.93 13.23,37.91 a 24,24 0 0 1 2.44,5.92 z" />
    <path
       id="path2013"
       transform="translate(-88.58,-43.42)"
       d="m 693.68,218.26 a 81.37,81.37 0 0 1 -10.09,34.52 c -5.28,9.61 -14.61,19.18 -25.42,17.33 a 4.25,4.25 0 0 1 -2.58,-1.17 2.5,2.5 0 0 1 -0.47,-0.78 c -0.12,0.78 -0.22,1.57 -0.28,2.37 a 4.61,4.61 0 0 0 0.75,3.41 4.25,4.25 0 0 0 2.58,1.17 c 10.81,1.85 20.14,-7.72 25.42,-17.33 a 81.37,81.37 0 0 0 10.09,-34.52 c 0.12,-2.34 0.13,-4.67 0.06,-7 -0.02,0.67 -0.02,1.33 -0.06,2 z" />
  </g>
  <path
     id="path2017"
     opacity="0.1"
     stroke-miterlimit="10"
     stroke="#000000"
     fill="none"
     d="m 705.7566,482.7754 c 0,0 25.31,10.62 42,-12.88" />
  <path
     id="path2019"
     opacity="0.1"
     stroke-miterlimit="10"
     stroke="#000000"
     fill="none"
     d="m 710.7366,501.3354 c 0,0 20.67,-13.44 47,-0.44" />
  <path
     id="path2021"
     opacity="0.1"
     stroke-miterlimit="10"
     stroke="#000000"
     fill="none"
     d="m 572.3766,498.2854 c 0,0 8.68,-19.58 31.86,-4.65" />
  <path
     id="path2023"
     opacity="0.1"
     d="m 544.2366,208.7254 17.7,-16 c 0,0 68.63,-4.5 71.47,18.83 0,0 24.33,-27.66 75.5,-21.5 l 21.65,17.24 -59.84,26.26 -58.15,20.17 -42.83,-19.17 z" />
  <path
     id="path2025"
     fill="#d5d6db"
     d="m 544.2366,209.7254 17.7,-16 c 0,0 68.63,-4.5 71.47,18.83 0,0 24.33,-27.66 75.5,-21.5 l 21.65,17.24 -59.84,26.26 -58.15,20.17 -42.83,-19.17 z" />
  <polygon
     transform="translate(99.026603,6.8954004)"
     id="polygon2027"
     opacity="0.1"
     points="445.21,298.5 528.21,302.67 524.61,209.4 524.54,207.83 437.38,204.83 " />
  <polygon
     transform="translate(99.026603,6.8954004)"
     id="polygon2029"
     fill="#303eb2"
     points="445.21,296.5 528.21,300.67 524.61,207.4 524.54,205.83 437.38,202.83 " />
  <polygon
     transform="translate(99.026603,6.8954004)"
     id="polygon2031"
     opacity="0.1"
     points="549.71,215.67 549.71,309.76 633.38,297.67 635.33,202.83 " />
  <polygon
     transform="translate(99.026603,6.8954004)"
     id="polygon2033"
     fill="#303eb2"
     points="549.71,213.67 549.71,307.76 633.38,295.67 635.33,200.83 " />
  <polygon
     transform="translate(99.026603,6.8954004)"
     id="polygon2035"
     opacity="0.3"
     fill="#ffffff"
     points="568.89,228.93 569.9,244.69 615.11,239.75 615.14,223.79 " />
  <path
     id="path2037"
     fill="#be6f72"
     d="m 548.7366,353.5554 4.71,12.67 c 0,0 7,6 14.66,3 7.66,-3 14.34,-4.49 17.67,-7.41 3.33,-2.92 8,-17.59 8,-17.59 0,0 4.67,-16 9.33,-20 4.66,-4 17,-59.11 0,-53.72 -17,5.39 -30,55.39 -30,55.39 0,0 -3,3.66 -7.33,4 -4.33,0.34 -13,-0.67 -14.67,3 -1.67,3.67 -7.37,13.33 -2.37,20.66 z" />
  <path
     id="path2039"
     opacity="0.1"
     d="m 648.7366,222.5554 a 28.8,28.8 0 0 1 -25.11,-6.26 l 3.61,93.26 c 0,0 8.5,9.2 21.5,7.1 z" />
  <path
     id="path2041"
     fill="#303eb2"
     d="m 648.7366,220.5554 a 28.8,28.8 0 0 1 -25.11,-6.26 l 3.61,93.26 c 0,0 8.5,9.2 21.5,7.1 z" />
  <path
     id="path2043"
     opacity="0.1"
     d="m 648.7366,220.5554 a 28.8,28.8 0 0 1 -25.11,-6.26 l 3.61,93.26 c 0,0 8.5,9.2 21.5,7.1 z" />
  <path
     id="path2045"
     opacity="0.1"
     d="m 650.7366,210.0454 c 0,0 34.83,-10.65 43.91,-9.15" />
  <path
     id="path2047"
     opacity="0.1"
     d="m 611.7766,205.3954 c 0,0 -33.76,-8 -39.4,-5.73" />
  <path
     id="path2049"
     opacity="0.1"
     d="m 672.6966,211.3754 c 0,0 23.29,-8.54 31.71,-4.48" />
  <path
     id="path2051"
     opacity="0.1"
     d="m 660.9666,425.6054 a 76.56,76.56 0 0 1 11.48,-7.13 c 6,-2.89 17,-10.39 17,-10.39" />
  <path
     id="path2053"
     opacity="0.1"
     d="m 572.3766,323.5554 c 0,0 -14.61,11.95 -19,13 -4.39,1.05 -7.1,10.37 -7.1,10.37" />
  <path
     id="path2055"
     fill="#be6f72"
     d="m 725.7666,351.7754 -4.66,12.7 c 0,0 -7,6 -14.67,3 -7.67,-3 -14.33,-4.49 -17.67,-7.41 -3.34,-2.92 -8,-17.59 -8,-17.59 0,0 -4.66,-16 -9.33,-20 -4.67,-4 -17,-59.11 0,-53.72 17,5.39 30,55.39 30,55.39 0,0 3,3.66 7.33,4 4.33,0.34 13,-0.67 14.67,3 1.67,3.67 7.33,13.33 2.33,20.63 z" />
  <path
     id="path2057"
     opacity="0.1"
     d="m 717.5966,328.4154 c 0,0 9.55,6.14 9.51,13.48" />
  <circle
     id="circle2059"
     fill="#be6f72"
     r="44.669998"
     cy="105.7654"
     cx="636.56659" />
  <path
     id="path2061"
     fill="#3e373a"
     d="m 608.5166,93.7754 c 5.42,-0.85 10.17,-4 15.35,-5.81 11.59,-4.07 24.41,-1.28 36.14,2.39 4.5,1.41 9.07,3 13.79,3 4.72,0 9.73,-1.93 12.14,-6 2.22,-3.74 1.79,-8.6 -0.08,-12.53 -1.87,-3.93 -5,-7.09 -8.16,-10.07 -10.4,-9.82 -23.3,-19 -37.57,-18 -5.74,0.41 -11.23,2.46 -16.51,4.73 a 182,182 0 0 0 -19.38,9.76 c -4.81,2.79 -13.72,6.52 -16.49,11.62 -6.3,11.49 10.97,22.45 20.77,20.91 z" />
  <path
     id="path2063"
     opacity="0.1"
     d="m 685.9366,83.1554 c -2.41,4.07 -7.42,6 -12.14,6 -4.72,0 -9.29,-1.53 -13.8,-2.94 -11.73,-3.67 -24.54,-6.47 -36.14,-2.39 -5.17,1.81 -9.93,5 -15.35,5.8 -7.9,1.24 -20.62,-5.64 -22,-14.39 -1.55,10.11 13.2,18.77 22,17.39 5.42,-0.85 10.18,-4 15.35,-5.8 11.6,-4.08 24.41,-1.28 36.14,2.39 4.51,1.41 9.07,3 13.8,2.94 4.73,-0.06 9.73,-1.92 12.14,-6 a 11.71,11.71 0 0 0 1.4,-7.31 10.78,10.78 0 0 1 -1.4,4.31 z" />
  <path
     d="m 898.50617,133.90273 c 0,0 -25.22275,-28.51416 -40.95629,-6.53861 0,0 -3.96245,2.69725 -2.46077,7.23129 0,0 1.46505,-1.36328 3.68222,1.83503 a 17.05,17.05 0 0 0 2.78298,3.07158 8.62,8.62 0 0 0 5.0396,2.10506 v 0 c 0,0 10.68002,4.44407 25.99107,-4.95953 0,0 4.87247,-0.5114 5.5096,-1.2603 l -6.48866,-2.62268 c 0,0 -1.73008,4.82076 -5.67015,6.32303 0,0 5.73349,-6.01892 4.72306,-6.76237 -0.1766,-0.17695 -3.49191,-1.21966 -3.49191,-1.21966 0,0 -3.04879,8.36915 -9.20979,10.49148 0,0 7.79848,-6.2573 7.9657,-10.91697 l -5.06158,-1.33434 c 0,0 -2.78071,9.00581 -9.70594,11.69307 0,0 7.92632,-6.82285 8.58186,-11.91338 l -5.16125,-0.64147 c 0,0 -2.87945,8.73701 -8.65867,10.93043 0,0 8.3596,-8.80941 7.47787,-10.99523 0,0 -4.77267,-0.30876 -6.07428,0.22737 0,0 -2.2406,6.24862 -5.69222,7.19275 0,0 4.97026,-6.47222 4.34161,-7.15873 0,0 -6.3157,1.25951 -9.15347,3.56896 a 19.46,19.46 0 0 1 8.92111,-4.56621 10.71,10.71 0 0 0 -5.86008,-1.86545 c 0,0 3.07109,-2.28801 7.40185,1.58413 0,0 4.96467,-0.78708 5.6926,-0.39745 0,0 -3.72916,-4.43016 -7.29163,-5.80546 0,0 4.7026,-0.34185 8.6987,5.88462 l 5.16139,0.50005 c 0,0 -4.64679,-6.07155 -7.7071,-7.56655 0,0 4.85744,0.39368 9.00794,7.80825 l 4.97679,1.26355 c 0,0 -3.58663,-5.56139 -6.66022,-7.93323 0,0 4.41812,1.32664 8.07403,8.34474 l 3.21613,1.22646 c 0,0 -2.68307,-4.00487 -3.55881,-5.09467 -0.87574,-1.08981 -0.65622,-1.40779 -0.65622,-1.40779 a 16.51,16.51 0 0 1 5.57925,7.00585 c 0,0 6.48823,3.06108 6.69368,2.67238 z"
     fill="#303eb2"
     id="path1909-3" />
  <path
     d="m 827.14146,295.54792 c 0,0 12.60068,-35.97229 -14.26647,-38.94028 0,0 -4.29003,-2.14676 -7.51083,1.37854 0,0 1.88032,0.59582 0.15862,4.08016 a 17.72,17.72 0 0 0 -1.31907,3.91608 8.63,8.63 0 0 0 0.62397,5.43827 v 0 c 0,0 1.32513,11.49179 17.0072,20.26828 0,0 2.82449,4.005 3.79308,4.15445 l -0.87707,-6.92344 c 0,0 -5.07077,0.82232 -8.28545,-1.87492 0,0 8.0519,2.07975 8.20161,0.84246 0.0285,-0.25453 -0.61161,-3.62807 -0.61161,-3.62807 0,0 -8.79781,1.41971 -13.65137,-2.91963 0,0 9.25941,3.75677 13.41223,1.61832 l -1.29609,-5.06416 c 0,0 -9.22968,1.96375 -14.94552,-2.77242 0,0 9.81818,3.59469 14.57889,1.68311 l -1.96104,-4.79611 c 0,0 -9.03146,1.73767 -13.77225,-2.23387 0,0 11.77038,3.00265 13.25005,1.15855 0,0 -2.06758,-4.30831 -3.16273,-5.19327 0,0 -6.51354,1.10375 -9.05662,-1.44434 0,0 8.07401,1.1676 8.35061,0.32641 0,0 -4.18125,-4.89729 -7.63063,-6.23005 a 19.47,19.47 0 0 1 8.35963,5.54487 10.77,10.77 0 0 0 -1.23151,-6.03283 c 0,0 3.49157,1.57321 2.22735,7.22883 0,0 3.11445,3.95579 3.12779,4.77605 0,0 2.03471,-5.40737 1.50103,-9.18385 0,0 2.60536,3.92701 -0.90827,10.4148 l 2.06711,4.78914 c 0,0 3.06866,-7.00441 2.84574,-10.41288 0,0 2.02505,4.42141 -2.45103,11.70021 l 1.32449,4.95105 c 0,0 3.11702,-5.83764 3.67941,-9.67668 0,0 0.99259,4.50525 -3.34848,11.11243 l 0.49869,3.41582 c 0,0 2.18919,-4.30413 2.74197,-5.56223 0.55279,-1.25811 0.91342,-1.26483 0.91342,-1.26483 a 16.41,16.41 0 0 1 -3.38106,8.29104 c 0,0 0.53756,7.02211 1.00421,7.06499 z"
     fill="#303eb2"
     opacity="0.1"
     id="path1913-6" />
  <path
     d="m 854.52061,468.28035 c 0,0 37.67145,5.48687 35.49585,-21.45262 0,0 1.28409,-4.61815 -2.7902,-7.11067 0,0 -0.23844,1.98697 -3.9966,0.9764 a 17.05,17.05 0 0 0 -4.10838,-0.54847 8.62,8.62 0 0 0 -5.20744,1.64666 v 0 c 0,0 -11.0247,3.50262 -16.64419,20.56947 0,0 -3.39038,3.53665 -3.39332,4.5199 l 6.64816,-2.18707 c 0,0 -1.79169,-4.79821 0.2469,-8.48942 0,0 -0.49164,8.2981 0.75997,8.21336 0.24911,0.0211 3.45392,-1.3234 3.45392,-1.3234 0,0 -3.07591,-8.35922 0.25818,-13.95796 0,0 -1.91452,9.81349 0.96654,13.47955 l 4.72656,-2.24936 c 0,0 -3.69171,-8.67227 -0.13883,-15.19586 0,0 -1.64696,10.3279 1.13942,14.63827 l 4.35529,-2.84279 c 0,0 -3.44276,-8.53077 -0.44608,-13.93729 0,0 -0.6951,12.12458 1.38958,13.22432 0,0 3.84373,-2.84595 4.49145,-4.09577 0,0 -2.32382,-6.21815 -0.29782,-9.16779 0,0 0.38385,8.15142 1.30716,8.26972 0,0 4.00936,-5.0398 4.68505,-8.63562 a 19.46,19.46 0 0 1 -3.86369,9.24708 10.71,10.71 0 0 0 5.67923,-2.35941 c 0,0 -0.8677,3.73011 -6.67486,3.56974 0,0 -3.28277,3.80669 -4.0902,3.9792 0,0 5.70812,0.97492 9.31641,-0.2752 0,0 -3.37013,3.2975 -10.44195,1.12329 l -4.26408,2.95087 c 0,0 7.46865,1.63576 10.7708,0.8013 0,0 -3.9633,2.83583 -11.92017,-0.1459 l -4.61611,2.24867 c 0,0 6.32971,1.93075 10.20817,1.75725 0,0 -4.23025,1.83977 -11.55345,-1.15858 l -3.24774,1.14014 c 0,0 4.63471,1.32563 6.0071,1.59233 1.3724,0.2667 1.4101,0.65125 1.4101,0.65125 a 16.51,16.51 0 0 1 -8.78395,-1.74709 c 0,0 -6.9309,1.85203 -6.83678,2.2815 z"
     fill="#303eb2"
     id="path1909-7" />
  <path
     d="m 873.54296,373.88967 c 0,0 38.09634,1.20473 32.85087,-25.31202 0,0 0.7579,-4.73693 -3.57252,-6.74908 0,0 -0.003,1.97246 -3.84378,1.37777 a 17.72,17.72 0 0 0 -4.13147,-0.0809 8.63,8.63 0 0 0 -4.99919,2.22985 v 0 c 0,0 -10.56198,4.71824 -14.21857,22.31323 0,0 -2.97074,3.89775 -2.82212,4.86647 l 6.33959,-2.91768 c 0,0 -2.30855,-4.58906 -0.70238,-8.46585 0,0 0.43682,8.30468 1.66189,8.07554 0.25134,-0.0493 3.27642,-1.67392 3.27642,-1.67392 0,0 -3.99864,-7.96416 -1.31896,-13.89764 0,0 -0.79968,9.96045 2.4882,13.27839 l 4.44035,-2.75842 c 0,0 -4.64735,-8.21252 -1.84839,-15.08769 0,0 -0.47712,10.44466 2.77711,14.41058 l 3.98481,-3.31205 c 0,0 -4.37214,-8.09143 -2.00935,-13.80679 0,0 0.67438,12.1286 2.87797,12.98551 0,0 3.48755,-3.26704 4.00238,-4.57755 0,0 -3.01066,-5.88051 -1.34486,-9.07193 0,0 1.31343,8.05158 2.19886,8.06253 0,0 3.41392,-5.45999 3.64817,-9.15046 a 19.47,19.47 0 0 1 -2.77555,9.63978 10.77,10.77 0 0 0 5.38364,-2.98801 c 0,0 -0.4509,3.80299 -6.22497,4.29731 0,0 -2.83664,4.15951 -3.61496,4.41879 0,0 5.76892,0.31518 9.21031,-1.32903 0,0 -2.96222,3.66532 -10.20614,2.2644 l -3.94629,3.41112 c 0,0 7.6029,0.82123 10.78673,-0.41596 0,0 -3.60821,3.26046 -11.89587,1.17938 l -4.32393,2.75151 c 0,0 6.50462,1.21808 10.33516,0.60045 0,0 -3.99852,2.30095 -11.60504,0.14676 l -3.10793,1.50241 c 0,0 4.76313,0.79413 6.12922,0.94316 1.36608,0.14904 1.48089,0.49097 1.48089,0.49097 a 16.41,16.41 0 0 1 -8.92392,-0.73242 c 0,0 -6.53575,2.62353 -6.43638,3.08149 z"
     fill="#303eb2"
     opacity="0.1"
     id="path1913-5" />
  <path
     d="m 361.26214,298.55834 c 0,0 -13.33394,35.6574 13.45589,39.23148 0,0 4.24187,2.23221 7.54007,-1.2224 0,0 -1.89152,-0.65348 -0.1086,-4.1127 a 17.05,17.05 0 0 0 1.40538,-3.8993 8.62,8.62 0 0 0 -0.50747,-5.43795 v 0 c 0,0 -1.09048,-11.51623 -16.58178,-20.61983 0,0 -2.73916,-4.06196 -3.69953,-4.27289 l 0.73079,6.9604 c 0,0 5.06869,-0.73581 8.24495,2.03768 0,0 -8.00617,-2.23639 -8.18819,-0.99519 -0.0733,0.239 0.56258,3.65574 0.56258,3.65574 0,0 8.8208,-1.23745 13.58727,3.20585 0,0 -9.18616,-3.94771 -13.37884,-1.90763 l 1.19828,5.0955 c 0,0 9.25707,-1.77306 14.88114,3.07976 0,0 -9.74553,-3.79504 -14.5479,-1.98384 l 1.85684,4.85821 c 0,0 9.06609,-1.55969 13.71608,2.51316 0,0 -11.70294,-3.24493 -13.21891,-1.44017 0,0 1.96817,4.3589 3.05264,5.25642 0,0 6.56907,-0.95544 9.02321,1.64883 0,0 -8.04807,-1.34968 -8.35906,-0.47231 0,0 4.0773,4.98499 7.44872,6.40626 a 19.46,19.46 0 0 1 -8.22012,-5.73289 10.71,10.71 0 0 0 1.10424,6.04989 c 0,0 -3.46203,-1.63735 -2.0765,-7.27908 0,0 -3.02585,-4.01393 -3.02361,-4.83958 0,0 -2.16068,5.37257 -1.70238,9.16368 0,0 -2.50971,-3.99157 1.11166,-10.44319 l -1.98177,-4.79193 c 0,0 -3.17909,6.9534 -3.06226,10.35735 0,0 -1.93297,-4.47363 2.66492,-11.61938 l -1.22099,-4.9874 c 0,0 -3.2264,5.77783 -3.87751,9.60517 0,0 -0.90298,-4.52375 3.57706,-11.04668 l -0.42709,-3.41544 c 0,0 -2.27632,4.24925 -2.82739,5.53414 -0.55106,1.28488 -0.93488,1.24036 -0.93488,1.24036 a 16.51,16.51 0 0 1 3.56622,-8.21536 c 0,0 -0.34351,-7.16585 -0.78316,-7.16474 z"
     fill="#303eb2"
     id="path1909-35" />
  <path
     d="m 250.28248,355.69095 c 0,0 11.75075,36.25883 34.93084,22.35428 0,0 4.71412,-0.88883 5.14311,-5.64459 0,0 -1.85725,0.66424 -2.59658,-3.1513 a 17.72,17.72 0 0 0 -1.32116,-3.91537 8.63,8.63 0 0 0 -3.78921,-3.95044 v 0 c 0,0 -8.01236,-8.34383 -25.80718,-5.83417 0,0 -4.67279,-1.47743 -5.53416,-1.00994 l 4.88985,4.97923 c 0,0 3.53786,-3.72457 7.72941,-3.52421 0,0 -7.66755,3.21979 -7.03759,4.29517 0.1314,0.21985 2.68339,2.51721 2.68339,2.51721 0,0 6.14247,-6.45655 12.63259,-5.94153 0,0 -9.64395,2.61616 -11.65439,6.83244 l 4.09764,3.24576 c 0,0 6.15679,-7.15103 13.57345,-6.84224 0,0 -9.99054,3.08346 -12.62214,7.48723 l 4.46457,2.62983 c 0,0 6.13592,-6.85108 12.31359,-6.56051 0,0 -11.1858,4.73662 -11.24693,7.10017 0,0 4.25403,2.1771 5.66143,2.21837 0,0 4.51576,-4.82208 8.08249,-4.33381 0,0 -7.13289,3.95914 -6.84374,4.79609 0,0 6.29286,1.36613 9.84507,0.33843 a 19.47,19.47 0 0 1 -10.01042,0.64826 10.77,10.77 0 0 0 4.63271,4.05582 c 0,0 -3.73138,0.86187 -6.1494,-4.40475 0,0 -4.87378,-1.26271 -5.38101,-1.90746 0,0 1.65449,5.53555 4.36571,8.21807 0,0 -4.45117,-1.54803 -5.58276,-8.83888 l -4.54477,-2.56007 c 0,0 1.79852,7.43262 4.0396,10.0104 0,0 -4.28864,-2.29286 -5.13316,-10.79598 l -4.05175,-3.13854 c 0,0 1.05362,6.53327 2.93037,9.9292 0,0 -3.51769,-2.98469 -4.06303,-10.87153 l -2.465,-2.41667 c 0,0 0.86359,4.75104 1.18536,6.08702 0.32177,1.33599 0.0388,1.55968 0.0388,1.55968 a 16.41,16.41 0 0 1 -2.32889,-8.64576 c 0,0 -4.67937,-5.26331 -5.07673,-5.01491 z"
     fill="#303eb2"
     opacity="0.1"
     id="path1913-62" />
  <path
     d="m 471.58382,214.65291 c 0,0 35.70898,13.19519 39.17887,-13.60834 0,0 2.2157,-4.25051 -1.25171,-7.53526 0,0 -0.64612,1.89405 -4.11225,0.12459 a 17.05,17.05 0 0 0 -3.90473,-1.39021 8.62,8.62 0 0 0 -5.43594,0.52862 v 0 c 0,0 -11.51189,1.13524 -20.55519,16.66182 0,0 -4.05128,2.75493 -4.25848,3.71612 l 6.95751,-0.75785 c 0,0 -0.75552,-5.06579 2.0056,-8.25281 0,0 -2.20524,8.0148 -0.96335,8.192 0.23929,0.0724 3.65354,-0.57679 3.65354,-0.57679 0,0 -1.27174,-8.81592 3.15299,-13.59963 0,0 -3.91196,9.20144 -1.8556,13.38616 l 5.0908,-1.21809 c 0,0 -1.80903,-9.2501 3.02189,-14.89301 0,0 -3.75713,9.76022 -1.92727,14.55551 l 4.85095,-1.87572 c 0,0 -1.59492,-9.05995 2.45981,-13.72575 0,0 -3.1994,11.71548 -1.38875,13.22441 0,0 4.35121,-1.9851 5.2445,-3.07305 0,0 -0.98097,-6.56531 1.61374,-9.02955 0,0 -1.31838,8.05325 -0.43981,8.36083 0,0 4.96911,-4.09665 6.37726,-7.47357 a 19.46,19.46 0 0 1 -5.70089,8.24235 10.71,10.71 0 0 0 6.04555,-1.12776 c 0,0 -1.62387,3.46838 -7.27096,2.10479 0,0 -4.00213,3.04144 -4.82778,3.0424 0,0 5.38093,2.13977 9.17023,1.66674 0,0 -3.98178,2.52522 -10.44743,-1.07105 l -4.78419,2.00039 c 0,0 6.96571,3.15203 10.36918,3.02196 0,0 -4.46608,1.95036 -11.62966,-2.61971 l -4.98261,1.24037 c 0,0 5.79033,3.2039 9.62018,3.84013 0,0 -4.52021,0.92057 -11.06051,-3.53408 l -3.41376,0.44037 c 0,0 4.25807,2.25978 5.54509,2.80584 1.28702,0.54607 1.24399,0.93006 1.24399,0.93006 a 16.51,16.51 0 0 1 -8.22916,-3.53425 c 0,0 -7.16446,0.37137 -7.16165,0.81102 z"
     fill="#303eb2"
     id="path1909-9" />
  <path
     id="path1913-62-1"
     opacity="0.1"
     fill="#303eb2"
     d="m 319.03509,247.0899 c 0,0 36.64727,10.47667 38.03988,-16.51803 0,0 1.89235,-4.40817 -1.81517,-7.41742 0,0 -0.4849,1.91193 -4.06392,0.39682 a 17.72,17.72 0 0 0 -3.98647,-1.08793 8.63,8.63 0 0 0 -5.39251,0.94076 v 0 c 0,0 -11.3947,1.99453 -19.2396,18.16275 0,0 -3.83308,3.05374 -3.92566,4.02941 l 6.86035,-1.28023 c 0,0 -1.11729,-5.01404 1.38745,-8.38086 0,0 -1.60558,8.15968 -0.36166,8.23683 0.25576,0.0136 3.58611,-0.82263 3.58611,-0.82263 0,0 -1.93148,-8.69979 2.11677,-13.79867 0,0 -3.20916,9.46315 -0.83165,13.48389 l 4.97975,-1.58986 c 0,0 -2.49985,-9.09913 1.89416,-15.08201 0,0 -3.01471,10.0115 -0.82814,14.65234 l 4.67329,-2.23801 c 0,0 -2.26256,-8.91446 1.4251,-13.87926 0,0 -2.30957,11.92575 -0.38214,13.2951 0,0 4.18011,-2.31586 4.99954,-3.46085 0,0 -1.48255,-6.4379 0.91254,-9.12555 0,0 -0.6937,8.12844 0.16221,8.35541 0,0 4.64454,-4.46034 5.77341,-7.98171 a 19.47,19.47 0 0 1 -5.04679,8.66941 10.77,10.77 0 0 0 5.95054,-1.582 c 0,0 -1.36646,3.57754 -7.08628,2.64605 0,0 -3.76701,3.34033 -4.58508,3.40158 0,0 5.51705,1.71519 9.25588,0.9617 0,0 -3.76803,2.83042 -10.45008,-0.29801 l -4.66015,2.34349 c 0,0 7.1718,2.65404 10.56141,2.23228 0,0 -4.29549,2.28 -11.82346,-1.763 l -4.86517,1.6116 c 0,0 6.00984,2.77049 9.87518,3.10754 0,0 -4.43953,1.25421 -11.28914,-2.69326 l -3.38083,0.69748 c 0,0 4.42472,1.93389 5.71298,2.41219 1.28827,0.47831 1.31604,0.83794 1.31604,0.83794 a 16.41,16.41 0 0 1 -8.47448,-2.89068 c 0,0 -6.97868,0.94706 -6.99422,1.41542 z" />
  <path
     id="path1913-62-2"
     opacity="0.1"
     fill="#303eb2"
     d="m 893.966,240.74116 c 0,0 37.49979,6.82263 36.23145,-20.17819 0,0 1.44975,-4.57287 -2.53568,-7.20301 0,0 -0.29456,1.95034 -4.00521,0.79448 a 17.72,17.72 0 0 0 -4.07413,-0.6907 8.63,8.63 0 0 0 -5.27387,1.46641 v 0 c 0,0 -11.14338,3.10522 -17.36056,19.96644 0,0 -3.51425,3.41582 -3.51045,4.39587 l 6.70123,-1.94856 c 0,0 -1.60488,-4.87988 0.55669,-8.47667 0,0 -0.79551,8.27802 0.44997,8.23248 0.25586,-0.0116 3.48785,-1.17124 3.48785,-1.17124 0,0 -2.77751,-8.46773 0.74978,-13.93994 0,0 -2.26317,9.73284 0.49815,13.50033 l 4.79931,-2.07179 c 0,0 -3.38239,-8.80924 0.40207,-15.19517 0,0 -2.01574,10.25941 0.61653,14.66278 l 4.43061,-2.68667 c 0,0 -3.1281,-8.6488 0.0535,-13.95213 0,0 -1.12581,12.09506 0.92692,13.26826 0,0 3.93216,-2.71564 4.63504,-3.93565 0,0 -2.10837,-6.26094 0.0109,-9.17107 0,0 0.10888,8.15727 0.98296,8.29898 0,0 4.18348,-4.89539 4.96065,-8.51069 a 19.47,19.47 0 0 1 -4.16994,9.12362 10.77,10.77 0 0 0 5.76616,-2.15941 c 0,0 -1.00808,3.69456 -6.79178,3.32997 0,0 -3.42032,3.69453 -4.2284,3.83592 0,0 5.65896,1.16443 9.30559,0.047 0,0 -3.47147,3.1872 -10.42875,0.73092 l -4.40715,2.79034 c 0,0 7.398,1.93602 10.72973,1.18303 0,0 -4.0505,2.6913 -11.93952,-0.59193 l -4.68314,2.08215 c 0,0 6.25312,2.16615 10.13288,2.12152 0,0 -4.29471,1.68464 -11.49925,-1.57023 l -3.29588,1.02651 c 0,0 4.59344,1.48947 5.92248,1.83879 1.32905,0.34932 1.39205,0.70448 1.39205,0.70448 a 16.41,16.41 0 0 1 -8.71764,-2.04344 c 0,0 -6.85175,1.62864 -6.82116,2.09626 z" />
  <path
     id="path1909-3-7"
     fill="#303eb2"
     d="m 779.60669,685.11225 c 0,0 19.06093,32.95339 38.84346,14.53816 0,0 4.41899,-1.85705 3.84718,-6.59895 0,0 -1.70668,1.04506 -3.2447,-2.52942 a 17.05,17.05 0 0 0 -2.11794,-3.56285 8.62,8.62 0 0 0 -4.52148,-3.06351 v 0 c 0,0 -9.58538,-6.47558 -26.45834,-0.29828 0,0 -4.87703,-0.46593 -5.65014,0.14159 l 5.83896,3.85847 c 0,0 2.65256,-4.38142 6.81242,-5.07171 0,0 -6.81414,4.76108 -5.97138,5.6903 0.13804,0.20843 3.18033,1.88852 3.18033,1.88852 0,0 4.64936,-7.59745 11.10905,-8.45461 0,0 -8.88536,4.58482 -9.97418,9.11858 l 4.69601,2.31249 c 0,0 4.51299,-8.27464 11.83383,-9.53381 0,0 -9.12291,5.11375 -10.77585,9.97287 l 4.93122,1.65319 c 0,0 4.55641,-7.9916 10.65602,-8.99423 0,0 -9.94188,6.97478 -9.51158,9.29212 0,0 4.61641,1.24998 5.99855,0.98287 0,0 3.43633,-5.67953 7.00669,-5.91974 0,0 -6.15608,5.35686 -5.6762,6.15449 0,0 6.44003,0.0192 9.67975,-1.68102 a 19.46,19.46 0 0 1 -9.64997,2.70455 10.71,10.71 0 0 0 5.37319,2.99153 c 0,0 -3.46414,1.63288 -6.94012,-3.02184 0,0 -5.02212,-0.21405 -5.65822,-0.74042 0,0 2.77559,5.08223 5.99418,7.1373 0,0 -4.67688,-0.5984 -7.35754,-7.49418 l -4.95942,-1.51461 c 0,0 3.34914,6.8731 6.0518,8.94581 0,0 -4.68264,-1.35003 -7.27879,-9.44092 l -4.62695,-2.22628 c 0,0 2.41135,6.16266 4.95298,9.0974 0,0 -4.06687,-2.17722 -6.25697,-9.78135 l -2.90869,-1.84044 c 0,0 1.83473,4.45775 2.47672,5.6997 0.64198,1.24196 0.36373,1.51003 0.36373,1.51003 a 16.51,16.51 0 0 1 -4.07761,-7.9739 c 0,0 -5.75151,-4.28806 -6.03003,-3.94787 z" />
  <path
     id="path1909-3-0"
     fill="#303eb2"
     d="m 618.74409,785.85549 c 0,0 36.99172,8.9921 37.34958,-18.03273 0,0 1.7111,-4.47754 -2.11175,-7.34081 0,0 -0.42354,1.9559 -4.0705,0.59767 a 17.05,17.05 0 0 0 -4.03892,-0.93096 8.62,8.62 0 0 0 -5.3388,1.15155 v 0 c 0,0 -11.30437,2.45433 -18.4981,18.91964 0,0 -3.70679,3.20346 -3.80184,4.18211 l 6.82381,-1.5546 c 0,0 -1.33428,-4.94496 1.04117,-8.42895 0,0 -1.2669,8.21554 -0.0129,8.24843 0.24607,0.0441 3.56271,-0.99398 3.56271,-0.99398 0,0 -2.27924,-8.61063 1.56474,-13.87239 0,0 -2.82551,9.59097 -0.30058,13.51082 l 4.91651,-1.79664 c 0,0 -2.863,-8.98 1.28544,-15.14203 0,0 -2.60731,10.12816 -0.23702,14.68062 l 4.60247,-2.42225 c 0,0 -2.62839,-8.81579 0.86163,-13.91778 0,0 -1.82796,12.00614 0.1445,13.29635 0,0 4.09347,-2.47332 4.85543,-3.65696 0,0 -1.73104,-6.40851 0.5624,-9.15538 0,0 -0.38152,8.15155 0.52665,8.35582 0,0 4.46388,-4.642 5.47349,-8.1587 a 19.46,19.46 0 0 1 -4.71303,8.84442 10.71,10.71 0 0 0 5.87529,-1.81696 c 0,0 -1.21334,3.63242 -6.97995,2.92869 0,0 -3.62496,3.4824 -4.44499,3.57849 0,0 5.59165,1.50541 9.30121,0.59885 0,0 -3.66425,2.96725 -10.50126,0.14007 l -4.52179,2.5384 c 0,0 7.28255,2.32829 10.64836,1.80686 0,0 -4.21155,2.45205 -11.85408,-1.26202 l -4.80648,1.8063 c 0,0 6.12099,2.51527 9.99864,2.7059 0,0 -4.38401,1.43535 -11.39408,-2.23593 l -3.34027,0.83086 c 0,0 4.49013,1.75401 5.8315,2.14811 1.34137,0.39411 1.34287,0.7805 1.34287,0.7805 a 16.51,16.51 0 0 1 -8.58163,-2.56235 c 0,0 -7.07392,1.19454 -7.02046,1.63093 z" />
</svg>
